<svg width="528.59" height="530.322" viewBox="0 0 139.856 140.314" xml:space="preserve" xmlns="http://www.w3.org/2000/svg">
    <path class="back" style="stroke-width:.262906;fill:#6272a4" d="M.056.065v70c-2.06 48.092 53.356 84.661 96.787 64.671 45.057-16.528 58.152-81.64 22.71-114.168C104.873 4.953 83.284-.684 62.533.065H.055z"/>
    <path class="book book-shape" d="M100.703 63.223c-.161 10.372.39 20.783-.442 31.122-1.261 8.222-11.248 6.593-17.297 6.773-13.51-.036-27.023.072-40.53-.054-8.57-.434-12.78-12.203-6.406-17.915 4.777-4.684 11.822-2.626 17.814-3.084 13.07-.125 26.16.295 39.212-.308 8.711-.505 7.71-10.77 7.649-16.929-.16-10.24.39-20.519-.442-30.726-1.261-8.223-11.248-6.593-17.297-6.774-14.129.13-28.279-.301-42.39.309-8.711.505-7.71 10.77-7.648 16.928v48.027" stroke="#ff79c6" style="fill:none;fill-opacity:1;stroke:#ff79c6;stroke-width:4.22307;stroke-dasharray:none;stroke-opacity:1"/>
    <path class="book book-name" d="M54.106 46.381h25.416" stroke="#ff79c6" stroke-linecap="round" style="fill:none;fill-opacity:1;stroke:#ff79c6;stroke-width:4.22307;stroke-dasharray:none;stroke-opacity:1"/>
</svg>
